PathFileType	4	(X/Y/Z)	Star.trc	
DataRate	CameraRate	NumFrames	NumMarkers	Units	OrigDataRate	OrigDataStartFrame	OrigNumFrames	
100.00	100.00	47	6	mm	100.00	1377	1362	
Frame#	Time	LThighSuperior			LThighInferior			LThighLateral			LAsis			RAsis			SACR			
		X1	Y1	Z1	X2	Y2	Z2	X3	Y3	Z3	X4	Y4	Z4	X5	Y5	Z5	X6	Y6	Z6	

1192	11.910	39.46018	-28.80400	888.23798	8.14451	-125.52405	780.18488	4.94844	-1.19445	778.69305	108.56652	173.60809	982.50879	348.88553	230.69388	929.56757	287.39426	48.23566	1019.18890 
1193	11.920	39.33754	-28.57067	886.99731	7.74119	-124.93386	778.65210	4.70046	-0.19566	777.78210	108.83406	173.36053	982.27527	349.31177	230.10071	929.55188	287.38605	47.58822	1018.52728 
1194	11.930	39.22997	-28.14380	885.55774	7.66902	-123.16169	776.12415	4.69540	1.18977	776.52698	109.12260	173.18623	982.01672	349.82935	229.55293	929.55566	287.46692	46.98104	1017.93457 
1195	11.940	39.05059	-27.51126	883.84009	7.59965	-121.40051	773.38141	4.90430	2.89317	774.95874	109.49908	173.13655	981.68683	350.43292	229.04190	929.64191	287.41675	46.27863	1017.38959 
1196	11.950	38.83278	-26.81155	881.81787	7.31683	-119.64043	770.45929	5.30600	4.81649	773.07233	109.99725	173.13817	981.21021	351.11514	228.71567	929.81836	287.20697	45.49015	1016.85437 
1197	11.960	38.64119	-26.04380	879.48749	6.76867	-117.58793	767.13947	5.87942	7.01482	770.86633	110.47495	173.20702	980.71802	351.85837	228.50064	930.02563	287.04352	44.88166	1016.31708 
1198	11.970	38.40705	-25.00257	876.84332	6.90632	-114.94789	763.02563	6.70526	9.50130	768.43494	110.91811	173.44551	980.27911	352.55331	228.12633	930.24200	287.01691	44.59914	1015.65869 
1199	11.980	38.07837	-23.76989	873.91339	7.81962	-111.85909	758.34991	7.69877	12.22737	765.75891	111.36146	173.75674	979.83545	353.16956	227.71501	930.51868	287.05225	44.44521	1014.99469 
1200	11.990	37.66798	-22.56687	870.71478	8.49444	-108.59838	753.35999	8.73217	15.25538	762.76721	111.71756	173.94740	979.33069	353.81052	227.42606	930.85406	287.05630	43.91771	1014.57751 
1201	12.000	37.15902	-21.44644	867.23065	8.96075	-105.17967	748.00031	9.95553	18.53825	759.50238	112.04933	173.94446	978.67877	354.40985	227.18341	931.20514	287.00928	42.90506	1014.22302 
1202	12.010	36.53815	-20.27302	863.45874	9.58510	-101.42523	742.24146	11.35533	21.88657	755.97760	112.47652	173.68675	978.00397	354.92252	226.92891	931.57587	286.88638	41.93803	1013.64850 
1203	12.020	35.86382	-18.91665	859.39117	10.17410	-97.47074	736.18353	12.84581	25.43538	752.21094	112.95631	173.22354	977.41772	355.42792	226.61259	931.95197	286.90561	41.25541	1013.03662 
1204	12.030	35.21471	-17.35286	855.04022	10.86012	-93.29073	729.86139	14.48261	29.32471	748.31567	113.40372	172.70067	976.83539	355.88577	226.25514	932.28656	287.21307	40.58130	1012.44128 
1205	12.040	34.63941	-15.54085	850.37201	11.85762	-88.59579	723.20081	16.26576	33.48701	744.33972	113.79707	172.08313	976.21417	356.25769	225.86093	932.56567	287.52255	39.65581	1011.71167 
1206	12.050	34.18232	-13.46097	845.37097	12.99619	-83.38378	716.28882	18.15797	38.05771	740.23889	114.15762	171.30261	975.63092	356.60809	225.31024	932.81305	287.63931	38.59327	1010.97034 
1207	12.060	33.91506	-11.11386	840.20709	14.21575	-77.71336	709.22723	20.13902	43.11569	736.11230	114.49446	170.40820	975.08740	356.93872	224.64807	933.04395	287.67731	37.44941	1010.27130 
1208	12.070	33.84882	-8.48309	835.03314	15.49860	-71.51110	702.06256	22.18617	48.58474	732.08582	114.84013	169.35052	974.42444	357.21432	223.91113	933.27588	287.66727	36.01202	1009.61353 
1209	12.080	33.91592	-5.49972	829.82367	16.78452	-64.76963	694.87170	24.31524	54.44692	728.20221	115.22170	168.16570	973.75482	357.52277	222.97746	933.52673	287.63254	34.43653	1008.98578 
1210	12.090	34.08185	-2.15116	824.57495	18.19805	-57.50286	687.76215	26.63080	60.60131	724.50964	115.60538	166.89423	973.19110	357.89786	221.86481	933.77777	287.56149	32.84938	1008.26160 
1211	12.100	34.29422	1.44735	819.38892	19.76667	-49.70022	680.95282	29.07426	67.05904	721.02454	116.02219	165.44342	972.60242	358.29202	220.61214	934.01166	287.40619	31.09978	1007.43573 
1212	12.110	34.44346	5.37275	814.38940	21.34549	-41.39785	674.49860	31.55504	73.88561	717.83118	116.53399	163.87703	971.96606	358.73898	219.09315	934.26538	287.23328	29.18133	1006.77856 
1213	12.120	34.56392	9.57905	809.66333	22.85468	-32.66196	668.26721	34.25159	80.99075	715.06720	117.11999	162.35350	971.38245	359.23019	217.37285	934.56427	287.04211	27.02788	1006.21948 
1214	12.130	34.77546	13.90532	805.23798	24.24022	-23.79468	662.39001	37.16998	88.22517	712.81677	117.73917	160.79625	970.98676	359.81711	215.62683	934.85217	286.88297	24.80176	1005.40869 
1215	12.140	34.99913	18.33902	801.13495	25.46142	-14.76425	656.98102	40.19502	95.41792	711.07654	118.35749	159.10260	970.68567	360.48511	213.73772	935.02765	286.68259	22.58459	1004.53937 
1216	12.150	35.14532	22.81312	797.38281	26.52096	-5.30836	652.03687	43.33101	102.69228	709.89789	118.96265	157.42094	970.38794	361.09589	211.68993	935.10168	286.38477	20.10858	1003.75989 
1217	12.160	35.24681	27.27537	794.02759	27.56736	4.32426	647.72491	46.45374	110.03799	709.42035	119.55638	155.82129	970.24603	361.60489	209.58492	935.17877	286.11661	17.48548	1002.87885 
1218	12.170	35.32870	31.66302	791.16650	28.69080	13.86971	644.16071	49.41898	116.98838	709.56451	120.16512	154.11134	970.27301	362.15631	207.38107	935.54004	285.86588	14.98320	1001.89191 
1219	12.180	35.41909	35.94297	788.77686	29.79082	23.43568	641.22076	52.20119	123.59901	710.28546	120.82478	152.20825	970.40192	362.88553	205.03148	936.28906	285.42078	12.30180	1000.91443 
1220	12.190	35.51793	40.18495	786.76587	30.82020	33.31087	638.81714	54.80558	130.23421	711.65503	121.51009	150.26704	970.65405	363.64456	202.66602	937.01660	284.88159	9.22622	1000.03143 
1221	12.200	35.55710	44.51220	785.16925	31.90259	43.39758	637.02460	57.21526	136.92897	713.52899	122.10764	148.30531	971.04395	364.25626	200.66583	937.68195	284.47150	6.21743	999.23767 
1222	12.210	35.54350	48.97940	784.01349	33.07757	53.45716	635.89929	59.41866	143.67099	715.92133	122.61136	146.18292	971.62183	364.81754	198.61169	938.38464	284.08282	3.40779	998.35980 
1223	12.220	35.49889	53.53106	783.30646	34.23096	63.65868	635.45319	61.38685	150.44411	718.93805	123.12553	143.90694	972.40424	365.46158	195.85176	939.07843	283.67319	0.45864	997.44324 
1224	12.230	35.35004	58.25126	783.06500	35.33041	74.04596	635.59125	63.22283	157.22446	722.52271	123.64326	141.59875	973.32385	366.02197	192.98045	939.91754	283.14740	-2.61289	996.59821 
1225	12.240	35.44049	63.27934	783.19830	36.32781	84.49335	636.34351	64.97136	163.98267	726.61066	124.96855	139.48068	973.47186	366.46646	190.37939	940.82684	282.53159	-5.58491	995.77417 
1226	12.250	36.10163	68.35711	783.58905	37.27111	95.00500	637.87701	66.55882	170.63394	731.16742	125.44577	137.75731	974.19299	366.87695	187.83434	941.77368	282.08112	-8.51484	994.96100 
1227	12.260	36.76748	73.30720	784.37000	38.51242	105.76077	640.00854	68.14632	177.17038	736.32489	125.55856	136.19928	975.22321	367.29825	185.34909	942.82281	281.71301	-11.38146	994.11359 
1228	12.270	37.34870	78.12451	785.49988	40.06868	116.74721	642.57971	69.78837	183.56134	742.05969	125.78213	134.22180	976.57263	367.78397	182.79504	943.79828	281.18228	-14.05928	993.22284 
1229	12.280	38.50022	82.51768	786.57520	41.55160	127.70103	645.77057	71.42473	189.85236	748.21466	126.09263	131.46381	978.45636	368.23129	180.12524	944.69592	280.48398	-16.87811	992.35138 
1230	12.290	38.52176	87.72079	788.73553	43.02293	138.69650	649.62518	73.15360	196.14818	754.79871	126.33279	130.00441	979.31891	368.62354	177.46930	945.68018	279.80692	-19.86504	991.51276 
1231	12.300	39.04699	92.97970	790.72296	44.51642	149.86171	654.14087	75.09330	202.34045	761.77185	127.00107	127.95008	980.67426	369.05316	174.81308	946.66565	279.22797	-22.65709	990.68591 
1232	12.310	39.73487	98.55836	793.11432	45.40239	161.55792	659.63147	77.29270	208.45947	769.19452	127.58604	126.06719	982.01959	369.56421	172.14577	947.53839	278.54150	-25.37850	989.83667 
1233	12.320	40.20324	104.46884	796.11438	46.18528	173.64632	665.92847	79.73832	214.48474	777.10559	128.03613	124.66068	983.13580	370.13623	169.54482	948.40332	277.68240	-28.07593	988.81891 
1234	12.330	40.50787	110.47865	799.75677	47.85028	185.34637	672.60913	82.50735	220.36652	785.42291	128.56769	123.33527	984.21143	370.76578	166.99286	949.33649	276.78702	-30.72085	987.69257 
1235	12.340	40.81700	116.74841	804.08606	49.61687	196.73428	679.94208	85.53357	226.17754	794.11438	129.11861	122.04414	985.26227	371.47125	164.27226	950.21564	275.82126	-33.35130	986.52759 
1236	12.350	41.21800	123.23151	808.80768	50.84396	208.25946	688.05316	88.53630	231.88904	803.09460	129.69077	120.94102	986.32855	372.28812	161.43030	950.96875	274.87479	-35.77995	985.21429 
1237	12.360	41.89647	129.58939	813.60956	51.79333	219.99263	696.82446	91.42202	237.42845	812.34290	130.31987	119.96962	987.45819	373.24161	158.69119	951.70099	273.83173	-38.02958	983.80139 
1238	12.370	42.51983	135.87712	818.64020	52.91124	231.42949	706.15601	94.17587	242.74901	821.91913	131.11377	119.65559	988.66565	374.45358	156.11992	952.46039	272.45798	-40.19953	982.31329 
